<svg width="192" height="192" viewBox="0 0 192 192" fill="none" xmlns="http://www.w3.org/2000/svg">
<rect width="192" height="192" rx="48" fill="url(#paint0_linear_1_7)"/>
<path d="M81.7778 46.2222L96 32M67.5556 124.444L124.444 67.5556M96 160L110.222 145.778M128 145.778C132.715 145.778 137.237 143.905 140.571 140.571C143.905 137.237 145.778 132.715 145.778 128C145.778 123.285 143.905 118.763 140.571 115.429C137.237 112.095 132.715 110.222 128 110.222C123.285 110.222 118.763 112.095 115.429 115.429C112.095 118.763 110.222 123.285 110.222 128C110.222 132.715 112.095 137.237 115.429 140.571C118.763 143.905 123.285 145.778 128 145.778ZM64 81.7778C68.715 81.7778 73.2368 79.9048 76.5708 76.5708C79.9048 73.2368 81.7778 68.715 81.7778 64C81.7778 59.285 79.9048 54.7632 76.5708 51.4292C73.2368 48.0952 68.715 46.2222 64 46.2222C59.285 46.2222 54.7632 48.0952 51.4292 51.4292C48.0952 54.7632 46.2222 59.285 46.2222 64C46.2222 68.715 48.0952 73.2368 51.4292 76.5708C54.7632 79.9048 59.285 81.7778 64 81.7778ZM49.7778 160C54.4927 160 59.0146 158.127 62.3486 154.793C65.6825 151.459 67.5556 146.937 67.5556 142.222C67.5556 137.507 65.6825 132.985 62.3486 129.651C59.0146 126.317 54.4927 124.444 49.7778 124.444C45.0628 124.444 40.541 126.317 37.207 129.651C33.873 132.985 32 137.507 32 142.222C32 146.937 33.873 151.459 37.207 154.793C40.541 158.127 45.0628 160 49.7778 160ZM142.222 67.5556C146.937 67.5556 151.459 65.6825 154.793 62.3486C158.127 59.0146 160 54.4927 160 49.7778C160 45.0628 158.127 40.541 154.793 37.207C151.459 33.873 146.937 32 142.222 32C137.507 32 132.985 33.873 129.651 37.207C126.317 40.541 124.444 45.0628 124.444 49.7778C124.444 54.4927 126.317 59.0146 129.651 62.3486C132.985 65.6825 137.507 67.5556 142.222 67.5556Z" stroke="white" stroke-width="8" stroke-linecap="round" stroke-linejoin="round"/>
<defs>
<linearGradient id="paint0_linear_1_7" x1="191.035" y1="192" x2="0.965246" y2="-2.15894e-06" gradientUnits="userSpaceOnUse">
<stop stop-color="#615FFF"/>
<stop offset="1" stop-color="#8E51FF"/>
</linearGradient>
</defs>
</svg>
